
<svg width="27" height="31" viewBox="0 0 27 31" fill="none" xmlns="http://www.w3.org/2000/svg">
<path d="M23.3333 14.3353C22.6041 14.5257 21.875 14.6428 21.1458 14.6428C19.0197 14.639 16.9818 13.7892 15.4785 12.2797C13.9751 10.7702 13.1288 8.72403 13.125 6.58928C13.125 4.43678 13.9708 2.48929 15.3125 1.03965C15.0478 0.713905 14.7141 0.451549 14.3357 0.271696C13.9573 0.0918441 13.5437 -0.000973023 13.125 7.69144e-06C11.5208 7.69144e-06 10.2083 1.31786 10.2083 2.92857V3.35321C5.87707 4.64178 2.91666 8.63928 2.91666 13.1786V21.9642L0 24.8928V26.3571H26.25V24.8928L23.3333 21.9642V14.3353ZM13.125 30.7499C14.7437 30.7499 16.0416 29.4467 16.0416 27.8214H10.2083C10.2083 28.5981 10.5156 29.343 11.0626 29.8922C11.6096 30.4414 12.3514 30.7499 13.125 30.7499Z" fill="#46A941"/>
<circle cx="21.375" cy="6.1033" r="5.62499" fill="#00A6FF"/>
</svg>
