<?xml version="1.0"?>
<svg width="17" height="20" viewBox="0 0 17 20" fill="none" xmlns="http://www.w3.org/2000/svg">
<path d="M16.4335 5.38271L16.4336 5.38279C16.4823 5.42778 16.5 5.47796 16.5 5.52009V19.2857C16.5 19.3684 16.4163 19.5 16.2273 19.5H0.772727C0.583702 19.5 0.5 19.3684 0.5 19.2857V0.714286C0.5 0.631637 0.583703 0.5 0.772727 0.5H11.0283C11.113 0.5 11.1884 0.532009 11.237 0.576986L16.4335 5.38271ZM15.2179 6.34821H16.4954L15.5573 5.48105L11.0127 1.28016L10.1733 0.504244V1.64732V5.84821V6.34821H10.6733H15.2179ZM7.22727 11.0179H5.11932C4.94761 11.0179 4.77579 11.0805 4.64332 11.203C4.50953 11.3267 4.42614 11.5032 4.42614 11.6964V12.7679C4.42614 12.9611 4.50953 13.1376 4.64332 13.2613C4.77579 13.3837 4.94761 13.4464 5.11932 13.4464H7.22727V15.3571C7.22727 15.5504 7.31067 15.7269 7.44446 15.8506C7.57693 15.973 7.74875 16.0357 7.92045 16.0357H9.07955C9.25125 16.0357 9.42307 15.973 9.55554 15.8506C9.68933 15.7269 9.77273 15.5504 9.77273 15.3571V13.4464H11.8807C12.0524 13.4464 12.2242 13.3837 12.3567 13.2613C12.4905 13.1376 12.5739 12.9611 12.5739 12.7679V11.6964C12.5739 11.5032 12.4905 11.3267 12.3567 11.203C12.2242 11.0805 12.0524 11.0179 11.8807 11.0179H9.77273V9.10714C9.77273 8.91392 9.68933 8.73738 9.55554 8.61371C9.42307 8.49126 9.25125 8.42857 9.07955 8.42857H7.92045C7.74875 8.42857 7.57693 8.49126 7.44446 8.61371C7.31067 8.73738 7.22727 8.91392 7.22727 9.10714V11.0179Z" stroke="#112429"/>
</svg>