<?xml version="1.0"?>
<svg xmlns="http://www.w3.org/2000/svg" id="Layer_1" data-name="Layer 1" viewBox="0 0 512 512" width="512" height="512">
    <path d="M138.067,337.763,251.626,458.72a6,6,0,0,0,8.748,0L373.933,337.763c17.287-18.414,30.016-38.616,37.835-60.044a163.631,163.631,0,0,0,9.882-67.352A173.61,173.61,0,0,0,371.521,99.342a163.119,163.119,0,0,0-231.042,0A173.61,173.61,0,0,0,90.35,210.367a163.631,163.631,0,0,0,9.882,67.352C108.051,299.147,120.78,319.349,138.067,337.763Zm-35.745-126.6A161.624,161.624,0,0,1,148.98,107.812a151.118,151.118,0,0,1,214.04,0,161.624,161.624,0,0,1,46.658,103.355,151.7,151.7,0,0,1-9.184,62.438c-7.259,19.9-19.14,38.72-35.309,55.944L256,445.847,146.815,329.55c-16.169-17.225-28.05-36.048-35.309-55.945A151.7,151.7,0,0,1,102.322,211.167Z"/>
    <path d="M256,347.07c69.477,0,126-57.969,126-129.223S325.477,88.625,256,88.625,130,146.594,130,217.847,186.523,347.07,256,347.07Zm0-246.445c62.859,0,114,52.585,114,117.222S318.859,335.07,256,335.07,142,282.484,142,217.847,193.141,100.625,256,100.625Z"/>
    <path d="M192.286,172.638h11.373l8.886,100.406a6,6,0,0,0,5.976,5.472h74.958a6,6,0,0,0,5.976-5.472l8.886-100.406h11.373a6,6,0,0,0,0-12H286.361V153.21a14.139,14.139,0,0,0-14.122-14.123H239.761a14.139,14.139,0,0,0-14.122,14.123v7.428H192.286a6,6,0,0,0,0,12Zm95.7,93.878H224.014l-8.308-93.878h80.588ZM237.639,153.21a2.125,2.125,0,0,1,2.122-2.123h32.478a2.125,2.125,0,0,1,2.122,2.123v7.428H237.639Z"/>
</svg>
